<svg width="76" height="63" viewBox="0 0 76 63" fill="none" xmlns="http://www.w3.org/2000/svg">
<path d="M75.4142 49.4142C76.1953 48.6332 76.1953 47.3668 75.4142 46.5858L62.6863 33.8579C61.9052 33.0768 60.6389 33.0768 59.8579 33.8579C59.0768 34.6389 59.0768 35.9052 59.8579 36.6863L71.1716 48L59.8579 59.3137C59.0768 60.0948 59.0768 61.3611 59.8579 62.1421C60.6389 62.9232 61.9052 62.9232 62.6863 62.1421L75.4142 49.4142ZM0 0V9H4V0H0ZM41 50H74V46H41V50ZM0 9C0 31.6437 18.3563 50 41 50V46C20.5655 46 4 29.4345 4 9H0Z" fill="white"/>
</svg>
